<?xml version="1.0" encoding="UTF-8" standalone="no"?>
<svg
   xmlns:dc="http://purl.org/dc/elements/1.1/"
   xmlns:cc="http://creativecommons.org/ns#"
   xmlns:rdf="http://www.w3.org/1999/02/22-rdf-syntax-ns#"
   xmlns:svg="http://www.w3.org/2000/svg"
   xmlns="http://www.w3.org/2000/svg"
   xmlns:sodipodi="http://sodipodi.sourceforge.net/DTD/sodipodi-0.dtd"
   xmlns:inkscape="http://www.inkscape.org/namespaces/inkscape"
   height="512pt"
   viewBox="0 -32 512.00001 512"
   width="512pt"
   version="1.1"
   id="svg12"
   sodipodi:docname="paw.svg"
   inkscape:version="0.92.1 r15371">
  <metadata
     id="metadata18">
    <rdf:RDF>
      <cc:Work
         rdf:about="">
        <dc:format>image/svg+xml</dc:format>
        <dc:type
           rdf:resource="http://purl.org/dc/dcmitype/StillImage" />
      </cc:Work>
    </rdf:RDF>
  </metadata>
  <defs
     id="defs16" />
  <sodipodi:namedview
     pagecolor="#ffffff"
     bordercolor="#666666"
     borderopacity="1"
     objecttolerance="10"
     gridtolerance="10"
     guidetolerance="10"
     inkscape:pageopacity="0"
     inkscape:pageshadow="2"
     inkscape:window-width="1280"
     inkscape:window-height="965"
     id="namedview14"
     showgrid="false"
     inkscape:zoom="0.34570313"
     inkscape:cx="347.11864"
     inkscape:cy="341.33333"
     inkscape:window-x="0"
     inkscape:window-y="0"
     inkscape:window-maximized="1"
     inkscape:current-layer="svg12" />
  <path
     d="m342.382812 239.351562c-23.039062-35.941406-62.277343-57.402343-104.964843-57.402343-42.683594 0-81.925781 21.460937-104.960938 57.402343l-55.515625 86.605469c-9.210937 14.371094-13.460937 30.96875-12.292968 47.996094 1.167968 17.03125 7.648437 32.890625 18.738281 45.871094 11.097656 12.976562 25.761719 21.84375 42.40625 25.648437 16.644531 3.800782 33.707031 2.179688 49.339843-4.691406l1.019532-.453125c39.339844-16.957031 84.304687-16.804687 123.546875.453125 10.121093 4.449219 20.84375 6.699219 31.664062 6.699219 5.882813 0 11.800781-.667969 17.664063-2.003907 16.644531-3.800781 31.308594-12.667968 42.410156-25.644531 11.09375-12.976562 17.578125-28.839843 18.75-45.871093 1.171875-17.035157-3.078125-33.632813-12.289062-48.007813zm26.246094 160.972657c-14.121094 16.507812-36.964844 21.726562-56.847656 12.984375-23.632812-10.394532-49-15.589844-74.375-15.589844-25.351562 0-50.714844 5.191406-74.332031 15.574219l-.671875.296875c-19.730469 8.34375-42.238282 3.058594-56.203125-13.265625-14.105469-16.511719-15.710938-39.886719-3.992188-58.171875l55.519531-86.605469c17.492188-27.289063 47.28125-43.582031 79.691407-43.582031 32.410156 0 62.203125 16.292968 79.699219 43.582031l55.511718 86.601563c11.722656 18.292968 10.113282 41.671874-4 58.175781zm0 0"
     id="path2" />
  <path
     d="m91.894531 239.238281c16.515625-6.34375 29.0625-19.652343 35.332031-37.476562 5.960938-16.960938 5.472657-36.109375-1.382812-53.921875-6.859375-17.800782-19.335938-32.332032-35.128906-40.921875-16.597656-9.019531-34.828125-10.488281-51.316406-4.132813-33.171876 12.753906-48.394532 53.746094-33.929688 91.398438 11.554688 29.96875 38.503906 48.886718 65.75 48.886718 6.957031 0 13.933594-1.234374 20.675781-3.832031zm-58.417969-55.835937c-8.523437-22.1875-1.035156-45.789063 16.703126-52.609375 3.203124-1.234375 6.589843-1.847657 10.046874-1.847657 5.335938 0 10.847657 1.457032 16.152344 4.34375 9.539063 5.183594 17.160156 14.183594 21.457032 25.335938 4.292968 11.160156 4.675781 22.941406 1.074218 33.179688-3.300781 9.382812-9.617187 16.28125-17.78125 19.417968l-.015625.007813c-17.714843 6.828125-39.085937-5.660157-47.636719-27.828125zm0 0"
     id="path4" />
  <path
     d="m199.613281 171.386719c41.46875 0 75.207031-38.4375 75.207031-85.683594 0-47.257813-33.738281-85.703125-75.207031-85.703125-41.464843 0-75.199219 38.445312-75.199219 85.703125 0 47.246094 33.734376 85.683594 75.199219 85.683594zm0-141.375c24.917969 0 45.195313 24.984375 45.195313 55.691406 0 30.695313-20.277344 55.671875-45.195313 55.671875s-45.1875-24.976562-45.1875-55.671875c0-30.707031 20.269531-55.691406 45.1875-55.691406zm0 0"
     id="path6" />
  <path
     d="m329.496094 192.4375h.003906c6.378906 2.117188 12.886719 3.128906 19.367188 3.128906 30.242187 0 59.714843-22.011718 70.960937-55.839844 6.476563-19.472656 6.050781-40.0625-1.199219-57.972656-7.585937-18.746094-21.644531-32.355468-39.589844-38.324218-17.945312-5.960938-37.363281-3.476563-54.664062 7-16.527344 10.011718-29.191406 26.246093-35.65625 45.71875-13.652344 41.078124 4.640625 84.273437 40.777344 96.289062zm-12.296875-86.824219c4.222656-12.714843 12.292969-23.191406 22.726562-29.511719 9.652344-5.847656 20.183594-7.335937 29.648438-4.191406 9.460937 3.148438 17 10.640625 21.234375 21.101563 4.574218 11.304687 4.769531 24.53125.539062 37.246093-8.433594 25.375-31.933594 40.492188-52.382812 33.699219-20.433594-6.796875-30.199219-32.96875-21.765625-58.34375zm0 0"
     id="path8" />
  <path
     d="m487.875 182.4375-.011719-.011719c-28.597656-21.125-71.367187-11.96875-95.347656 20.421875-23.957031 32.40625-20.210937 75.972656 8.34375 97.113282 10.414063 7.714843 22.71875 11.402343 35.3125 11.402343 21.949219 0 44.785156-11.203125 60.046875-31.804687 23.957031-32.40625 20.214844-75.972656-8.34375-97.121094zm-15.777344 79.265625c-14.160156 19.113281-38.101562 25.453125-53.378906 14.136719-15.265625-11.300782-16.195312-36.042969-2.074219-55.144532 9.386719-12.679687 23.097657-19.734374 35.734375-19.734374 6.390625 0 12.507813 1.804687 17.648438 5.605468 15.253906 11.3125 16.179687 36.046875 2.070312 55.136719zm0 0"
     id="path10" />
  <path
     style="fill:#ffffff;stroke:#00f900;stroke-width:2.89265537;stroke-opacity:0.00408164"
     d="M 65.651269,359.53159 C 26.808878,343.85432 2.4651108,306.11533 2.4864409,261.61015 2.5100357,212.37949 35.363551,176.94164 80.839142,177.09404 c 30.388328,0.10183 55.449128,14.24637 73.545518,41.50973 32.79573,49.40886 20.7237,114.54431 -25.6615,138.45827 -16.59092,8.55348 -45.220802,9.67447 -63.071891,2.46955 z m 49.215101,-37.76565 c 24.16574,-14.73462 28.15632,-56.76621 7.98526,-84.10653 -22.41183,-30.37753 -63.669712,-30.87836 -78.080322,-0.94781 -13.775424,28.61127 -0.51353,70.31559 26.977167,84.83438 13.849441,7.31437 31.336295,7.40357 43.117895,0.21996 z"
     id="path20"
     inkscape:connector-curvature="0"
     transform="matrix(0.74999998,0,0,0.74999998,0,-32)" />
  <path
     style="fill:#ffffff;stroke:#00f900;stroke-width:2.89265537;stroke-opacity:0.00408164"
     d="M 235.33646,263.57226 C 182.88335,243.40019 154.6428,176.65523 173.83034,118.20597 197.30219,46.705793 274.72271,21.788062 326.91103,68.937074 c 32.37311,29.247161 45.78739,79.284286 32.90891,122.754856 -17.38303,58.67543 -73.92437,91.32402 -124.48348,71.88033 z m 61.83947,-42.15547 c 13.80474,-11.10921 23.03933,-24.64411 27.12819,-39.76104 4.29796,-15.89002 1.82922,-49.94292 -4.5295,-62.47835 -21.34436,-42.077756 -66.88747,-49.809668 -96.27072,-16.344 -25.65417,29.21849 -23.59376,86.60468 4.02779,112.18112 14.53612,13.45986 24.19713,17.15362 42.16401,16.12088 13.30404,-0.76472 18.74483,-2.6889 27.48023,-9.71861 z"
     id="path22"
     inkscape:connector-curvature="0"
     transform="matrix(0.74999998,0,0,0.74999998,0,-32)" />
  <path
     style="fill:#ffffff;stroke:#00f900;stroke-width:2.89265537;stroke-opacity:0.00408164"
     d="m 442.55754,298.88386 c -31.66928,-10.38418 -54.59158,-38.70065 -60.30674,-74.49837 -5.48599,-34.36231 6.83081,-72.23751 31.52003,-96.92673 19.50483,-19.50483 34.4814,-26.33007 61.28895,-27.9311 19.8798,-1.187282 24.10125,-0.483056 38.06891,6.35068 18.23155,8.91987 34.5239,25.76001 43.30806,44.76419 4.97638,10.76621 6.15875,18.72447 6.06933,40.85126 -0.13881,34.34854 -7.21831,54.06115 -27.31057,76.04529 -20.03776,21.9245 -39.36805,31.69339 -64.94471,32.82092 -11.24359,0.49567 -23.70555,-0.1686 -27.69326,-1.47614 z m 41.45258,-37.77258 c 11.18442,-4.25231 27.77203,-20.2458 34.32993,-33.10035 7.33713,-14.38197 10.08184,-43.51256 5.42833,-57.61284 -14.05103,-42.57505 -65.36049,-46.55332 -91.78977,-7.11689 -28.90949,43.13726 -10.18246,100.47974 32.82743,100.51816 6.65801,0.006 15.29985,-1.20369 19.20408,-2.68808 z"
     id="path24"
     inkscape:connector-curvature="0"
     transform="matrix(0.74999998,0,0,0.74999998,0,-32)" />
  <path
     style="fill:#ffffff;stroke:#00f900;stroke-width:2.89265537;stroke-opacity:0.00408164"
     d="m 559.33747,454.64089 c -17.40477,-5.37645 -36.35966,-20.95634 -45.64776,-37.51999 -8.12736,-14.49367 -8.92135,-18.22657 -8.92135,-41.9435 0,-22.21228 1.14146,-28.46945 7.77595,-42.62556 9.47481,-20.21654 30.62633,-41.96056 50.07716,-51.47995 10.75998,-5.26602 20.38855,-7.33258 37.60452,-8.07097 20.92739,-0.89757 24.65821,-0.19674 38.99797,7.32577 63.21404,33.16153 53.82689,131.63147 -15.8169,165.91699 -20.21275,9.95071 -47.47406,13.52368 -64.06959,8.39721 z m 52.84955,-46.92112 c 36.01525,-24.07934 40.9247,-77.60692 8.52796,-92.98017 -13.73398,-6.51721 -24.25321,-5.80878 -41.5213,2.79627 -51.54424,25.68558 -48.58107,99.58503 3.9931,99.58503 12.04154,0 17.66631,-1.8234 29.00024,-9.40113 z"
     id="path26"
     inkscape:connector-curvature="0"
     transform="matrix(0.74999998,0,0,0.74999998,0,-32)" />
  <path
     style="fill:#ffffff;stroke:#00f900;stroke-width:2.89265537;stroke-opacity:0.00408164"
     d="m 153.0807,630.18577 c -8.87679,-3.6518 -20.80769,-10.20017 -26.5131,-14.55188 -14.92775,-11.38595 -30.227369,-35.279 -35.353789,-55.21113 -10.428547,-40.54745 -5.313932,-54.88949 50.657329,-142.04975 49.45989,-77.02055 65.0809,-95.00505 97.16261,-111.86351 49.40736,-25.96283 105.87368,-26.03797 155.03145,-0.2063 31.64839,16.63077 48.09123,35.39919 94.55199,107.92505 52.8279,82.46503 56.3222,89.91438 56.34306,120.11471 0.0145,19.89629 -1.24735,25.88577 -8.83108,41.9435 -10.59739,22.43882 -28.47084,40.76249 -50.14363,51.40665 -22.40174,11.00222 -55.1783,12.41655 -79.59914,3.43477 -66.49351,-24.45575 -106.14327,-25.46853 -167.15441,-4.26962 -36.26179,12.59951 -61.26534,13.56525 -86.15129,3.32751 z m 79.67796,-40.82639 c 56.29012,-19.3903 110.44535,-19.78186 162.72194,-1.17659 43.06805,15.32798 68.65784,14.21914 89.25754,-3.86765 C 507.4338,564.38811 514.4587,530.39064 501.1351,504.961 486.68475,477.38083 417.98286,374.1213 405.74993,361.5963 368.86024,323.82584 309.4573,313.73022 262.02877,337.17067 c -11.36838,5.61856 -26.48743,15.95319 -33.59787,22.96584 -14.99549,14.78926 -95.8509,139.82076 -101.1533,156.41933 -9.12599,28.56789 8.72245,65.68067 37.60376,78.19059 16.51834,7.1549 35.94338,5.61323 67.8773,-5.38705 z"
     id="path28"
     inkscape:connector-curvature="0"
     transform="matrix(0.74999998,0,0,0.74999998,0,-32)" />
</svg>
